<svg width="557" height="55" viewBox="0 0 557 55" fill="none" xmlns="http://www.w3.org/2000/svg">
<path d="M0 52.98V1.34H41.27V13.71H16.6V20.57H37.45V32.45H16.6V40.44H42.29V52.98H0Z" fill="#31287C"/>
<path d="M50.04 52.98V1.34H70.1C75.18 1.34 78.98 1.56 81.46 2.01C83.96 2.46 86.13 3.24 87.97 4.27C91.55 6.38 94.24 9.34 96.03 13.14C97.83 16.94 98.73 21.63 98.73 27.19C98.73 33.04 97.63 37.96 95.38 41.95C93.17 45.93 89.85 48.89 85.52 50.83C83.84 51.61 81.73 52.14 79.19 52.47C76.65 52.81 72.59 52.97 67.01 52.97H50.04V52.98ZM66.62 39.9H71.11C75.23 39.9 78.08 38.98 79.71 37.12C81.31 35.28 82.1 31.97 82.1 27.19C82.1 22.53 81.28 19.24 79.65 17.3C78.02 15.36 75.24 14.41 71.32 14.41H66.63V39.9H66.62Z" fill="#31287C"/>
<path d="M106.63 52.98V1.34H123.54V52.98H106.63Z" fill="#31287C"/>
<path d="M149.99 52.98V33.86L130.97 1.34H149.36L158.26 18.93L167.24 1.34H185.12L166.56 33.86V52.98H149.99Z" fill="#31287C"/>
<path d="M177.19 52.98L195.36 1.34H212.15L230.31 52.98H213.86L211.94 46.14H195.5L193.49 52.98H177.19ZM198.51 35.3H208.93L203.77 17.43L198.51 35.3Z" fill="#31287C"/>
<path d="M292.19 32.97H307.89C307.44 39.77 305.04 45.07 300.7 48.81C296.36 52.55 290.53 54.42 283.13 54.42C274.85 54.42 268.36 52.02 263.61 47.17C258.85 42.31 256.48 35.66 256.48 27.21C256.48 18.81 258.85 12.15 263.54 7.29999C268.22 2.42999 274.64 0.00999451 282.74 0.00999451C290.22 0.00999451 296.1 1.80999 300.4 5.40999C304.69 9.02999 307.1 14.2 307.61 20.92H291.71C291.48 18.27 290.62 16.27 289.13 14.91C287.68 13.58 285.58 12.92 282.93 12.92C279.7 12.92 277.25 14.11 275.62 16.47C273.99 18.84 273.2 22.43 273.2 27.22C273.2 31.93 274.08 35.49 275.79 37.89C277.53 40.3 280.07 41.51 283.4 41.51C285.99 41.51 288.01 40.78 289.53 39.28C291.04 37.81 291.94 35.71 292.19 32.97Z" fill="#31287C"/>
<path d="M312.66 27.2C312.66 18.8 315.04 12.14 319.85 7.29C324.68 2.42 331.22 0 339.52 0C347.8 0 354.33 2.42 359.13 7.29C363.94 12.14 366.31 18.8 366.31 27.2C366.31 35.6 363.94 42.24 359.13 47.11C354.33 51.98 347.8 54.41 339.52 54.41C331.22 54.41 324.68 51.98 319.85 47.11C315.04 42.25 312.66 35.6 312.66 27.2ZM329.4 27.2C329.4 32.08 330.21 35.68 331.84 37.97C333.48 40.26 336.04 41.4 339.51 41.4C342.98 41.4 345.53 40.26 347.14 37.98C348.74 35.71 349.55 32.11 349.55 27.2C349.55 22.28 348.75 18.67 347.14 16.38C345.53 14.13 342.98 12.98 339.51 12.98C336.04 12.98 333.47 14.13 331.84 16.42C330.21 18.71 329.4 22.3 329.4 27.2Z" fill="#31287C"/>
<path d="M373.88 52.98V1.34H412.95V14.34H390.48V22.34H408.35V34.82H390.48V52.99H373.88V52.98Z" fill="#31287C"/>
<path d="M419.28 52.98V1.34H458.34V14.34H435.85V22.34H453.75V34.82H435.85V52.99H419.28V52.98Z" fill="#31287C"/>
<path d="M464.64 52.98V1.34H505.93V13.71H481.22V20.57H502.1V32.45H481.22V40.44H506.93V52.98H464.64Z" fill="#31287C"/>
<path d="M514.68 52.98V1.34H555.97V13.71H531.28V20.57H552.18V32.45H531.28V40.44H556.98V52.98H514.68Z" fill="#31287C"/>
</svg>
